# xmcd CD database file
#
# Track frame offsets:
#	150
#	23213
#	39662
#	64687
#	77488
#	95178
#	112238
#	121664
#	142477
#	152771
#	169473
#	177315
#	192848
#	205019
#	222556
#	240816
#
# Disc length: 3265 seconds
#
# Revision: 0
# Processed by: cddbd v1.5.2PL0 Copyright (c) Steve Scherf et al.
# Submitted via: CDex 1.70beta2
#
DISCID=e80cbf10
DTITLE=Pfälzischer Posaunendienst - Festkonzert Landau zum 50 jährigen Jubiläum
DYEAR=2006
DGENRE=Brass Ensemble
TTITLE0=Einzug der Edlen  aus der Oper 'Mlada'  N.Rimski-Korsakov
TTITLE1='Kyrie' für zwei Bläserchöre aus op. 109  J.G. Rheinberger
TTITLE2='Bruckner Etüde'  Impressionen für tiefe Bläser  E.Crespo
TTITLE3='Was Gott tut das ist wohlgetan"  Schlußchor aus der Kantate BWV 100   J.S.Bach
TTITLE4=Canzon primi toni a 8 für zwei Bläserchöre  G.Gabrieli
TTITLE5=Sestetto per ottoni  F.Hidas
TTITLE6='Erhalt uns Herr bei deinem Wort' Choralbearbeitung  für eng- und weitmensurierte Bläserchöre  A.Becker
TTITLE7=Black Sam aus den 'Brass cats'  Chr. Hazell
TTITLE8='Freunde, daß der Mandelzweig' Fantasi für eng- und weitmensurierte Bläserchöre  M.Schütz
TTITLE9=Battle of Jericho Spiritual Impression  R.Harvey
TTITLE10='Abendsegen' für tiefe Bläser aus 'Hänsel und Gretel'  E.Humperdink
TTITLE11=Gemeinsames Lied 'Der Tag mein Gott ist nun vergangen' 
TTITLE12='Mögen sich die Wege vor deinen Füßen ebnen'  Bläser singen Irischen Abendsegen  G.Schwarze 
TTITLE13=Londonderry Air für Soloposaune und Bläserensemble  J. Iveson
TTITLE14=Zugabe: Vorspiel zu 'Was Gott tut, das ist wohlgetan'
TTITLE15=Zugabe: Bachchoral
EXTD=YEAR: 2006
EXTT0=
EXTT1=
EXTT2=
EXTT3=
EXTT4=
EXTT5=
EXTT6=
EXTT7=
EXTT8=
EXTT9=
EXTT10=
EXTT11=
EXTT12=
EXTT13=
EXTT14=
EXTT15=
PLAYORDER=
